<?xml version="1.0"?>
<!--Icons from directory ""-->
<svg xmlns="http://www.w3.org/2000/svg" width="300" height="990" viewBox="0 0 300 990"><svg xmlns:xlink="http://www.w3.org/1999/xlink" id="facebook-letter-logo" style="enable-background:new 0 0 430.113 430.114" xml:space="preserve" height="300" viewBox="0 0 430.113 430.114" width="300" version="1.1" y="0" x="0px">	<path id="facebook-letter-logo-Facebook" d="m158.08 83.3v59.218h-43.385v72.412h43.385v215.18h89.122v-215.17h59.805s5.601-34.721 8.316-72.685h-67.784s0-42.127 0-49.511c0-7.4 9.717-17.354 19.321-17.354h48.557v-75.385h-66.021c-93.52-0.014-91.32 72.47-91.32 83.29z"/></svg><svg xmlns:xlink="http://www.w3.org/1999/xlink" id="social-1" style="enable-background:new 0 0 90 90" xml:space="preserve" height="90" viewBox="0 0 90 90" width="90" version="1.1" y="300" x="0px">	<path id="social-1-Github__x28_alt_x29_" d="m65.709 10.5c1.17 2.657 1.928 7.07 0.797 10.301 4.625 3.949 6.215 13.549 3.982 21.394 6.592 0.503 14.444-0.242 19.512 1.781-4.738-0.609-11.209-1.804-17.32-1.388-1.158 0.079-2.873-0.044-2.789 1.585 7.074 0.555 14.104 1.16 19.912 2.973-5.761-0.941-12.754-2.375-19.912-2.574-2.957 5.835-8.908 8.703-17.123 9.307 0.883 1.922 2.574 2.653 2.987 5.744 0.616 4.618-0.964 11.381 0.595 14.459 0.748 1.475 1.967 1.514 2.789 2.775-2.012 2.381-7-0.268-7.568-2.775-0.973-4.295 1.482-10.953-1.192-13.865 0.188 4.685-1.108 11.264 0.199 15.449 0.515 1.646 2.002 2.281 1.593 3.766-9.352 0.949-5.443-12.104-6.972-19.81-1.411 0.101-0.791 2.113-0.796 2.972-0.04 7.524 1.54 17.844-6.57 16.838-0.237-1.582 1.088-2.119 1.593-3.563 1.479-4.233-0.277-10.542 0.401-15.651-3.095 2.334 0.325 10.48-1.593 14.657-1.105 2.404-4.666 3.45-7.367 2.377 0.352-1.79 2.2-1.501 2.984-3.169 1.096-2.324 0.008-5.674 0.399-9.111-5.729 1.144-10.173-0.166-12.348-3.764-0.973-1.615-1.214-3.52-2.39-4.951-1.17-1.432-3.04-1.625-3.582-3.563 7.095-1.708 7.367 7.302 13.739 7.524 1.954 0.071 2.97-0.563 4.778-0.988 0.506-2.272 1.589-3.967 3.186-5.153-7.929-1.085-14.477-3.554-17.522-9.504-7.208 0.354-13.804 1.317-19.913 2.771 5.545-2.014 12.384-2.736 19.715-2.973-0.432-2.596-4.219-1.882-6.57-1.782-4.37 0.192-9.87 0.735-13.343 1.387 5.034-1.795 12.098-1.571 18.918-1.585-2.086-6.54-1.363-16.929 3.186-20.798-1.289-3.249-0.889-8.563 0.796-11.093 5.079 0.228 8.159 2.443 11.35 4.557 3.957-1.125 8.118-1.685 13.54-1.387 2.28 0.126 4.651 1.151 6.369 0.989 1.685-0.158 3.542-2.049 5.178-2.771 2.131-0.941 3.934-1.3 6.372-1.388z"/></svg><svg xmlns:xlink="http://www.w3.org/1999/xlink" id="social" style="enable-background:new 0 0 430.117 430.117" xml:space="preserve" height="300" viewBox="0 0 430.117 430.117" width="300" version="1.1" y="390" x="0px">	<path id="social-LinkedIn" d="m430.12 261.54v159.02h-92.188v-148.37c0-37.271-13.334-62.707-46.703-62.707-25.473 0-40.632 17.142-47.301 33.724-2.432 5.928-3.058 14.179-3.058 22.477v154.88h-92.219s1.242-251.28 0-277.32h92.21v39.309c-0.187 0.294-0.43 0.611-0.606 0.896h0.606v-0.896c12.251-18.869 34.13-45.824 83.102-45.824 60.67-0.01 106.16 39.63 106.16 124.81zm-377.94-251.98c-31.548 0-52.183 20.693-52.183 47.905 0 26.619 20.038 47.94 50.959 47.94h0.616c32.159 0 52.159-21.317 52.159-47.94-0.6-27.209-19.996-47.902-51.547-47.902zm-46.706 411h92.184v-277.32h-92.184v277.32z"/></svg><svg xmlns:xlink="http://www.w3.org/1999/xlink" id="twitter-logo" style="enable-background:new 0 0 430.117 430.117" xml:space="preserve" height="300" viewBox="0 0 430.117 430.117" width="300" version="1.1" y="690" x="0px">	<path id="twitter-logo-Twitter__x28_alt_x29_" d="m381.38 198.64c24.157-1.993 40.543-12.975 46.849-27.876-8.714 5.353-35.764 11.189-50.703 5.631-0.732-3.51-1.55-6.844-2.353-9.854-11.383-41.798-50.357-75.472-91.194-71.404 3.304-1.334 6.655-2.576 9.996-3.691 4.495-1.61 30.868-5.901 26.715-15.21-3.5-8.188-35.722 6.188-41.789 8.067 8.009-3.012 21.254-8.193 22.673-17.396-12.27 1.683-24.315 7.484-33.622 15.919 3.36-3.617 5.909-8.025 6.45-12.769-32.73 20.907-51.85 63.054-67.32 103.94-12.148-11.773-22.915-21.044-32.574-26.192-27.097-14.531-59.496-29.692-110.36-48.572-1.561 16.827 8.322 39.201 36.8 54.08-6.17-0.826-17.453 1.017-26.477 3.178 3.675 19.277 15.677 35.159 48.169 42.839-14.849 0.98-22.523 4.359-29.478 11.642 6.763 13.407 23.266 29.186 52.953 25.947-33.006 14.226-13.458 40.571 13.399 36.642-45.81 47.32-118.04 43.84-159.52 4.26 108.3 147.57 343.72 87.274 378.8-54.866 26.285 0.224 41.737-9.105 51.318-19.39-15.15 2.57-37.1-0.08-48.74-4.93z"/></svg></svg>
