<?xml version="1.0" encoding="UTF-8" standalone="no"?>
<!-- Generator: Adobe Illustrator 19.0.0, SVG Export Plug-In . SVG Version: 6.00 Build 0)  -->

<svg
   xmlns:dc="http://purl.org/dc/elements/1.1/"
   xmlns:cc="http://creativecommons.org/ns#"
   xmlns:rdf="http://www.w3.org/1999/02/22-rdf-syntax-ns#"
   xmlns:svg="http://www.w3.org/2000/svg"
   xmlns="http://www.w3.org/2000/svg"
   xmlns:sodipodi="http://sodipodi.sourceforge.net/DTD/sodipodi-0.dtd"
   xmlns:inkscape="http://www.inkscape.org/namespaces/inkscape"
   version="1.1"
   id="Capa_1"
   x="0px"
   y="0px"
   viewBox="0 0 486.392 486.392"
   style="enable-background:new 0 0 486.392 486.392;"
   xml:space="preserve"
   inkscape:version="0.48.4 r9939"
   width="100%"
   height="100%"
   sodipodi:docname="linkedin.svg"><metadata
     id="metadata75"><rdf:RDF><cc:Work
         rdf:about=""><dc:format>image/svg+xml</dc:format><dc:type
           rdf:resource="http://purl.org/dc/dcmitype/StillImage" /></cc:Work></rdf:RDF></metadata><defs
     id="defs73" /><sodipodi:namedview
     pagecolor="#ffffff"
     bordercolor="#666666"
     borderopacity="1"
     objecttolerance="10"
     gridtolerance="10"
     guidetolerance="10"
     inkscape:pageopacity="0"
     inkscape:pageshadow="2"
     inkscape:window-width="810"
     inkscape:window-height="480"
     id="namedview71"
     showgrid="false"
     inkscape:zoom="0.48520535"
     inkscape:cx="243.196"
     inkscape:cy="243.196"
     inkscape:window-x="10"
     inkscape:window-y="34"
     inkscape:window-maximized="0"
     inkscape:current-layer="Capa_1" /><g
     id="g3"><g
       id="g5"><g
         id="g7"><path
           style="fill:#de1b1b;fill-opacity:1"
           d="M243.196,0C108.891,0,0,108.891,0,243.196s108.891,243.196,243.196,243.196     s243.196-108.891,243.196-243.196C486.392,108.861,377.501,0,243.196,0z M182.397,360.994h-60.799V148.197h60.799V360.994z      M153.882,135.156c-15.747,0-28.484-12.768-28.484-28.515s12.768-28.515,28.484-28.515c15.747,0.03,28.515,12.798,28.515,28.515     C182.397,122.388,169.629,135.156,153.882,135.156z M395.193,360.994h-60.799V229.425c0-15.413-4.408-26.204-23.347-26.204     c-31.403,0-37.452,26.204-37.452,26.204v131.569h-60.799V148.197h60.799v20.337c8.694-6.657,30.399-20.307,60.799-20.307     c19.699,0,60.799,11.795,60.799,83.051V360.994z"
           id="path9" /></g></g><g
       id="g11" /><g
       id="g13" /><g
       id="g15" /><g
       id="g17" /><g
       id="g19" /><g
       id="g21" /><g
       id="g23" /><g
       id="g25" /><g
       id="g27" /><g
       id="g29" /><g
       id="g31" /><g
       id="g33" /><g
       id="g35" /><g
       id="g37" /><g
       id="g39" /></g><g
     id="g41" /><g
     id="g43" /><g
     id="g45" /><g
     id="g47" /><g
     id="g49" /><g
     id="g51" /><g
     id="g53" /><g
     id="g55" /><g
     id="g57" /><g
     id="g59" /><g
     id="g61" /><g
     id="g63" /><g
     id="g65" /><g
     id="g67" /><g
     id="g69" /></svg>